<?xml version="1.0" encoding="UTF-8"?>
<svg enable-background="new 0 0 1920 1080" version="1.1" viewBox="0 0 1920 1080" xml:space="preserve" xmlns="http://www.w3.org/2000/svg">

<path d="m96.002 672.98c-1.3e-4 -116.16-0.25296-231.83 0.15843-347.49 0.11858-33.341 8.8693-64.644 27.883-92.567 16.046-23.565 37.066-41.802 61.214-56.558 30.334-18.536 63.325-30.722 97.71-38.974 18.213-4.371 36.779-7.4373 55.312-10.26 15.389-2.344 30.945-3.6842 46.463-5.0651 11.511-1.0242 23.072-1.8006 34.623-1.9896 33.432-0.54708 66.87-1.0238 100.31-1.0313 323.5-0.072785 646.99-0.091637 970.49 0.084945 17.979 0.009812 36.016 1.269 53.92 3.0223 27.802 2.7226 55.483 6.5091 82.766 12.814 33.155 7.6624 65.356 17.938 95.578 33.847 23.033 12.125 43.881 27.208 61.356 46.567 20.413 22.615 33.594 49.092 38.98 79.042 2.2045 12.256 3.0839 24.904 3.1083 37.376 0.22632 115.33 0.45496 230.66-0.04956 345.99-0.16455 37.592-11.361 72.009-34.985 102.02-16.369 20.795-36.396 37.025-59.25 49.949-33.891 19.164-70.329 31.515-108.35 39.165-18.052 3.6316-36.285 6.502-54.539 8.9557-14.646 1.9688-29.421 3.3324-44.183 3.9973-24.701 1.1126-49.436 2.0057-74.157 2.0308-167.83 0.17023-335.66 0.079651-503.49 0.16834-2.8173 0.001465-5.9153 0.64118-8.4072 1.9137-24.747 12.638-49.414 25.433-74.064 38.26-33.65 17.51-67.25 35.117-100.9 52.623-24.664 12.831-49.405 25.514-74.059 38.365-16.415 8.5568-32.63 17.503-49.131 25.89-16.17 8.2196-32.81 15.56-50.841 18.501-13.153 2.1451-26.388 3.1532-39.892 1.6273-11.5-1.2993-22.632-3.2061-32.98-8.3435-16.065-7.9756-25.807-19.999-25.669-39.044 0.29852-41.331 0.092041-82.665 0.092071-124 0-1.7925 3.1e-5 -3.5851 3.1e-5 -5.8738-2.0321 0-3.648 1.22e-4 -5.2639 6.1e-5 -17.833-7.33e-4 -35.677 0.3905-53.496-0.11182-17.997-0.50751-36.026-1.302-53.938-3.0352-33.535-3.2451-66.874-8.064-99.467-16.908-37.03-10.048-72.891-22.956-104.77-45.017-20.79-14.389-38.813-31.602-52.573-52.965-11.749-18.24-19.661-38.024-22.451-59.613-1.4097-10.906-2.0527-21.912-3.0424-33.369m759.93-201.07h85.144c-0.9812-7.0923-1.4088-13.365-2.7628-19.43-6.5068-29.148-24.855-49.028-50.248-63.216-16.745-9.3561-35.037-14.102-53.832-16.38-12.973-1.573-26.167-1.7603-39.264-1.7891-24.508-0.053802-48.194 4.4881-70.703 14.455-39.491 17.486-63.67 53.789-58.286 98.874 2.7708 23.203 13.233 41.932 31.86 55.99 17.474 13.188 37.606 20.232 58.758 24.721 15.599 3.311 31.28 6.2529 46.834 9.7596 10.523 2.3724 21.179 4.6771 31.217 8.4847 5.947 2.2557 11.964 6.4476 15.928 11.39 9.6335 12.011 4.3938 29.745-10.727 37.279-18.882 9.4082-38.593 10.436-58.725 4.077-14.95-4.7225-25.556-14.035-30.524-29.069-1.1312-3.423-2.8368-4.0639-6.0709-4.0499-27.159 0.11786-54.32 0.067138-81.479 0.067138-1.6187 0-3.2374-6.1e-5 -5.7728-6.1e-5 0.87488 5.0628 1.4809 9.4285 2.3965 13.728 5.7006 26.77 20.422 47.384 43.046 62.481 25.488 17.007 54.389 23.578 84.259 25.411 16.794 1.0306 33.867-0.2121 50.656-1.9587 20.829-2.167 40.722-8.3684 59.072-18.789 19.938-11.323 35.706-26.622 44.77-48.076 4.298-10.174 5.946-20.815 6.8035-31.874 1.6112-20.778-2.2842-39.677-15.739-55.918-12.788-15.435-29.944-24.597-48.727-29.819-22.91-6.3687-46.374-10.716-69.491-16.376-13.974-3.4213-28.013-6.9274-41.516-11.802-9.8101-3.5419-15.782-11.447-15.886-22.656-0.10522-11.375 5.6962-19.123 15.101-24.636 10.779-6.3185 22.637-7.1342 34.751-6.8511 20.078 0.46927 42.605 10.917 47.371 35.56l0.35767 0.34793s0.49658-0.049164 1.4281 0.066192m-543.43 226.12h25.245c0.57089-1.8341 0.98105-3.0972 1.3577-4.3702 8.6392-29.196 17.401-58.358 25.787-87.626 1.4054-4.9052 3.4533-6.2475 8.5205-6.2191 43.661 0.24573 87.323 0.1413 130.99 0.1413h6.1127c0.59155 1.8046 1.1384 3.3395 1.5997 4.8997 8.6811 29.357 17.422 58.697 25.939 88.102 1.1012 3.8022 2.5439 5.2206 6.7487 5.1905 30.662-0.21918 61.326-0.11804 91.99-0.11804h5.5735c-0.88123-2.6068-1.5532-4.6195-2.2414-6.6266-47.056-137.24-94.131-274.47-141.08-411.74-1.3132-3.8394-3.0578-4.984-7.0567-4.9645-34.995 0.17068-69.993 0.22962-104.99-0.042999-5.2276-0.04071-7.353 1.5181-9.0318 6.4286-46.825 136.97-93.827 273.87-140.78 410.79-0.62987 1.8367-1.0535 3.744-1.7222 6.1546h77.044m680.64-229.53v229.21h94.044v-6.2116c1.22e-4 -30.666-0.016724-61.333 0.040161-91.999 0.00354-1.9249-0.073853-4.3995 1.0023-5.6824 6.3937-7.6223 13.116-14.969 20.023-22.739 1.4301 2.0262 2.4955 3.485 3.5088 4.979 26.648 39.291 53.326 78.562 79.865 117.93 1.9883 2.9491 3.9835 4.1489 7.6046 4.1323 32.999-0.15137 65.999-0.084839 98.999-0.10101 1.5704-7.94e-4 3.141-0.17993 5.6713-0.33472-42.071-61.557-83.639-122.38-125.27-183.29 39.406-45.683 78.464-90.962 118.37-137.23h-7.0934c-31 0-62 0.083557-92.999-0.094482-4.4006-0.025269-7.2655 1.2396-10.059 4.7281-30.936 38.63-62.034 77.129-93.14 115.62-1.4373 1.7785-3.3574 3.1668-5.0526 4.7368-0.49707-0.22162-0.99402-0.44324-1.4911-0.66486v-238.3h-94.031c0 68.372 0 136.34-6.1e-5 205.31m528.29-158.81v67.561h-46.119v70.52h46.119v6.9778c2.44e-4 50.165-0.056763 100.33 0.036133 150.49 0.027221 14.749 0.55566 29.452 5.5613 43.632 4.7815 13.545 12.229 25.025 23.898 33.658 16.273 12.039 35.331 16.488 54.725 18.14 17.785 1.5144 35.806 0.56763 53.711 0.18542 6.1671-0.13165 12.301-1.8308 18.261-2.7838v-68.394c-2.9901 0.29535-5.6077 0.6153-8.2349 0.80267-10.765 0.76776-21.528 1.4781-32.014-2.0997-7.9633-2.7172-14.697-7.3945-17.045-15.566-2.2477-7.8202-3.7671-16.137-3.8317-24.25-0.35644-44.829-0.17017-89.662-0.1698-134.49 0-1.9479 1.22e-4 -3.8959 1.22e-4 -6.5655h61.238v-70.436h-61.246v-75.013h-94.889c0 2.4097 0 4.5452-2.44e-4 7.631m-185.43 155.81v232.26h97.304v-422.57h-97.304v190.31z" fill="#3A80F7"/><g fill="#fff">
<path d="m312 698.03h-76.544c0.66862-2.4106 1.0923-4.3179 1.7222-6.1546 46.956-136.92 93.957-273.83 140.78-410.79 1.6788-4.9106 3.8042-6.4693 9.0318-6.4286 34.994 0.27261 69.992 0.21368 104.99 0.042999 3.9989-0.0195 5.7435 1.1251 7.0567 4.9645 46.95 137.27 94.025 274.5 141.08 411.74 0.68817 2.0071 1.3602 4.0198 2.2414 6.6266h-5.5735c-30.664 0-61.328-0.10114-91.99 0.11804-4.2048 0.030091-5.6475-1.3882-6.7487-5.1905-8.5166-29.405-17.258-58.745-25.939-88.102-0.46136-1.5602-1.0082-3.0952-1.5997-4.8997h-6.1127c-43.662 0-87.325 0.10443-130.99-0.1413-5.0672-0.028442-7.1151 1.3138-8.5205 6.2191-8.386 29.269-17.148 58.43-25.787 87.626-0.37668 1.273-0.78684 2.5361-1.3577 4.3702h-25.745m106.89-273.69c-10.195 34.331-20.39 68.662-30.683 103.32h100.83c-0.21674-1.0822-0.29538-1.7346-0.47925-2.356-15.658-52.917-31.314-105.84-47.049-158.73-0.41321-1.3889-1.6881-2.5216-2.5611-3.7738-1.0012 1.2874-2.4882 2.4276-2.9298 3.8846-5.7373 18.93-11.326 37.904-17.124 57.654z"/>
<path d="m993.14 468c6.1e-5 -68.468 6.1e-5 -136.44 6.1e-5 -204.81h94.031v238.3c0.49707 0.22162 0.99402 0.44324 1.4911 0.66486 1.6952-1.57 3.6154-2.9583 5.0526-4.7368 31.106-38.493 62.204-76.993 93.14-115.62 2.7936-3.4885 5.6584-4.7534 10.059-4.7281 30.999 0.17804 61.999 0.094482 92.999 0.094482h7.0934c-39.911 46.268-78.969 91.548-118.37 137.23 41.627 60.908 83.196 121.73 125.27 183.29-2.5303 0.15478-4.1008 0.33392-5.6713 0.33472-33 0.016174-66-0.050354-98.999 0.10101-3.6211 0.016602-5.6163-1.1832-7.6046-4.1323-26.539-39.365-53.217-78.636-79.865-117.93-1.0133-1.494-2.0787-2.9528-3.5088-4.979-6.9061 7.7698-13.629 15.116-20.023 22.739-1.0762 1.2828-0.99878 3.7575-1.0023 5.6824-0.056885 30.666-0.040039 61.333-0.040161 91.999v6.2116h-94.044v-229.71z"/>
<path d="m854.14 471c-4.7601-24.144-27.287-34.592-47.365-35.061-12.114-0.28314-23.972 0.53256-34.751 6.8511-9.4052 5.5133-15.207 13.261-15.101 24.636 0.1037 11.209 6.0754 19.114 15.886 22.656 13.502 4.875 27.542 8.3811 41.516 11.802 23.117 5.6599 46.581 10.007 69.491 16.376 18.783 5.2214 35.939 14.384 48.727 29.819 13.455 16.241 17.35 35.14 15.739 55.918-0.85754 11.059-2.5055 21.7-6.8035 31.874-9.0641 21.455-24.831 36.753-44.77 48.076-18.35 10.421-38.243 16.622-59.072 18.789-16.789 1.7466-33.862 2.9893-50.656 1.9587-29.87-1.8331-58.771-8.4039-84.259-25.411-22.625-15.097-37.346-35.711-43.046-62.481-0.91559-4.2999-1.5216-8.6656-2.3965-13.728 2.5354 0 4.1541 6.1e-5 5.7728 6.1e-5 27.16 0 54.32 0.05072 81.479-0.067138 3.2341-0.014039 4.9398 0.62683 6.0709 4.0499 4.968 15.034 15.574 24.346 30.524 29.069 20.131 6.3589 39.843 5.3312 58.725-4.077 15.12-7.5341 20.36-25.268 10.727-37.279-3.9642-4.9424-9.9808-9.1344-15.928-11.39-10.038-3.8076-20.694-6.1122-31.217-8.4847-15.554-3.5067-31.234-6.4486-46.834-9.7596-21.153-4.4897-41.284-11.534-58.758-24.721-18.627-14.058-29.089-32.786-31.86-55.99-5.3838-45.085 18.795-81.388 58.286-98.874 22.509-9.9664 46.195-14.508 70.703-14.455 13.097 0.028748 26.291 0.21603 39.264 1.7891 18.795 2.2789 37.087 7.0244 53.832 16.38 25.393 14.188 43.742 34.068 50.248 63.216 1.354 6.0655 1.7816 12.338 2.7628 19.43-28.703 0-56.924 0-85.734-0.21063-0.77051-0.4032-0.97455-0.56717-1.2016-0.70248z"/>
<path d="m1521.4 309.21c1.22e-4 -2.6106 1.22e-4 -4.7461 1.22e-4 -7.1558h94.889v75.013h61.246v70.436h-61.238c0 2.6696-1.22e-4 4.6176-1.22e-4 6.5655-3.66e-4 44.832-0.18664 89.665 0.1698 134.49 0.064575 8.1127 1.584 16.43 3.8317 24.25 2.3489 8.1717 9.0822 12.849 17.045 15.566 10.485 3.5778 21.249 2.8675 32.014 2.0997 2.6272-0.18738 5.2448-0.50732 8.2349-0.80267v68.394c-5.9606 0.953-12.094 2.6521-18.261 2.7838-17.906 0.3822-35.926 1.329-53.711-0.18542-19.393-1.6515-38.452-6.1004-54.725-18.14-11.669-8.6337-19.117-20.113-23.898-33.658-5.0056-14.18-5.5341-28.883-5.5613-43.632-0.092896-50.165-0.035889-100.33-0.036133-150.49v-6.9778h-46.119v-70.52h46.119c0-22.989 0-45.275 1.22e-4 -68.036z"/>
<path d="m1336 465v-189.81h97.304v422.57h-97.304v-232.76z"/>
</g><path d="m854.14 471.25c0.2243-0.1142 0.42834 0.049774 0.73315 0.39529 0.12378 0.15295-0.3728 0.20212-0.3728 0.20212s-0.35767-0.34793-0.36035-0.59741z" fill="#E9F0FE"/>
<path d="m418.98 423.95c5.7123-19.357 11.301-38.331 17.038-57.261 0.44156-1.457 1.9286-2.5972 2.9298-3.8846 0.87302 1.2522 2.1479 2.3848 2.5611 3.7738 15.734 52.895 31.39 105.81 47.049 158.73 0.18387 0.62134 0.26251 1.2737 0.47925 2.356h-100.83c10.293-34.66 20.488-68.99 30.769-103.71z" fill="#3B81F7"/>
</svg>
